<svg width="495" height="460" viewBox="0 0 495 460" fill="none" xmlns="http://www.w3.org/2000/svg">
<g clip-path="url(#clip0_175_287)">
<path d="M102.13 205.538C75.2051 205.538 49.3827 194.76 30.3437 175.573C11.3047 156.387 0.608681 130.364 0.608681 103.231V21.3846C0.608681 15.9579 2.74788 10.7534 6.55568 6.91613C10.3635 3.07885 15.528 0.923077 20.913 0.923077H41.2174C46.6024 0.923077 51.7669 -1.23269 55.5747 -5.06997C59.3825 -8.90725 61.5217 -14.1117 61.5217 -19.5385C61.5217 -24.9652 59.3825 -30.1697 55.5747 -34.007C51.7669 -37.8442 46.6024 -40 41.2174 -40H20.913C4.75788 -40 -10.7356 -33.5327 -22.159 -22.0209C-33.5824 -10.509 -40 5.1044 -40 21.3846V103.231C-39.9739 126.347 -34.3803 149.111 -23.6997 169.569C-13.019 190.026 2.42947 207.565 21.3191 220.68C39.4677 236.804 54.1859 256.467 64.5853 278.482C74.9847 300.497 80.8496 324.407 81.826 348.769C81.826 386.756 96.8004 423.188 123.455 450.049C150.11 476.91 186.261 492 223.956 492C261.652 492 297.803 476.91 324.458 450.049C351.112 423.188 366.087 386.756 366.087 348.769V325.443C385.227 320.463 401.908 308.619 413.002 292.132C424.097 275.644 428.843 255.645 426.352 235.883C423.862 216.121 414.304 197.953 399.472 184.784C384.639 171.615 365.55 164.35 345.782 164.35C326.015 164.35 306.926 171.615 292.093 184.784C277.261 197.953 267.703 216.121 265.212 235.883C262.722 255.645 267.468 275.644 278.563 292.132C289.657 308.619 306.338 320.463 325.478 325.443V348.769C325.478 375.903 314.782 401.925 295.743 421.112C276.704 440.298 250.882 451.077 223.956 451.077C197.031 451.077 171.209 440.298 152.17 421.112C133.131 401.925 122.435 375.903 122.435 348.769C123.463 324.377 129.391 300.448 139.861 278.432C150.331 256.415 165.125 236.768 183.348 220.68C202.162 207.52 217.532 189.961 228.14 169.506C238.749 149.051 244.28 126.311 244.261 103.231V21.3846C244.261 5.1044 237.843 -10.509 226.42 -22.0209C214.996 -33.5327 199.503 -40 183.348 -40H163.043C157.658 -40 152.494 -37.8442 148.686 -34.007C144.878 -30.1697 142.739 -24.9652 142.739 -19.5385C142.739 -14.1117 144.878 -8.90725 148.686 -5.06997C152.494 -1.23269 157.658 0.923077 163.043 0.923077H183.348C188.733 0.923077 193.897 3.07885 197.705 6.91613C201.513 10.7534 203.652 15.9579 203.652 21.3846V103.231C203.652 116.666 201.026 129.97 195.924 142.382C190.822 154.795 183.344 166.073 173.917 175.573C164.49 185.073 153.298 192.609 140.981 197.751C128.664 202.892 115.462 205.538 102.13 205.538ZM345.782 287.385C335.012 287.385 324.683 283.073 317.068 275.399C309.452 267.724 305.174 257.315 305.174 246.462C305.174 235.608 309.452 225.199 317.068 217.525C324.683 209.85 335.012 205.538 345.782 205.538C356.553 205.538 366.882 209.85 374.497 217.525C382.113 225.199 386.391 235.608 386.391 246.462C386.391 257.315 382.113 267.724 374.497 275.399C366.882 283.073 356.553 287.385 345.782 287.385Z" fill="#FAAA27" fill-opacity="0.15"/>
</g>
<defs>
<clipPath id="clip0_175_287">
<rect width="495" height="460" fill="white"/>
</clipPath>
</defs>
</svg>
