<svg width="86" height="116" viewBox="0 0 86 116" fill="none" xmlns="http://www.w3.org/2000/svg">
<path d="M5 0.361816H115C116.326 0.361816 117.598 0.871041 118.536 1.77747C119.473 2.68389 120 3.91327 120 5.19515V92.1952C120 93.477 119.473 94.7064 118.536 95.6128C117.598 96.5193 116.326 97.0285 115 97.0285H5C3.67392 97.0285 2.40215 96.5193 1.46446 95.6128C0.526779 94.7064 0 93.477 0 92.1952V5.19515C0 3.91327 0.526779 2.68389 1.46446 1.77747C2.40215 0.871041 3.67392 0.361816 5 0.361816ZM10 87.3618H20V82.5285H45V87.3618H110V10.0285H10V87.3618ZM68.55 37.6268C68.55 35.4348 67.6492 33.3326 66.0458 31.7826C64.4423 30.2326 62.2676 29.3618 60 29.3618C55.25 29.3618 51.45 33.0835 51.45 37.6268C51.45 42.2185 55.25 45.9402 60 45.9402C64.75 45.9402 68.55 42.2185 68.55 37.6268ZM91.45 45.2635C91.45 41.8318 88.55 39.0285 85 39.0285C83.2894 39.0285 81.6488 39.6854 80.4392 40.8547C79.2296 42.024 78.55 43.6099 78.55 45.2635C78.55 48.6952 81.45 51.4501 85 51.4501C88.55 51.4501 91.45 48.6952 91.45 45.2635ZM41.45 45.2635C41.45 43.6099 40.7705 42.024 39.5608 40.8547C38.3512 39.6854 36.7106 39.0285 35 39.0285C33.2894 39.0285 31.6488 39.6854 30.4392 40.8547C29.2295 42.024 28.55 43.6099 28.55 45.2635C28.55 48.6952 31.45 51.4501 35 51.4501C38.55 51.4501 41.45 48.6952 41.45 45.2635ZM20 63.8718V68.0285H100V63.8718C100 59.3285 92.25 55.6068 85 55.6068C82.25 55.6068 79.45 56.1385 77 57.0568C73.25 53.7218 66.5 51.4501 60 51.4501C53.5 51.4501 46.75 53.7218 43 57.0568C40.55 56.1385 37.75 55.6068 35 55.6068C27.75 55.6068 20 59.3285 20 63.8718Z" fill="#34B3F1" fill-opacity="0.15"/>
</svg>
