<svg width="105" height="151" viewBox="0 0 105 151" fill="none" xmlns="http://www.w3.org/2000/svg">
<path d="M88.4999 17.0331L86.7687 17.5585L17.628 40.7234L1.9082 45.9062L11.0624 48.8378V97.2362C7.76027 99.1555 5.53117 102.657 5.53117 106.75C5.53117 109.684 6.69668 112.498 8.77131 114.572C10.8459 116.647 13.6597 117.812 16.5937 117.812C19.5276 117.812 22.3414 116.647 24.416 114.572C26.4907 112.498 27.6562 109.684 27.6562 106.75C27.6562 102.657 25.4271 99.1555 22.1249 97.2362V52.6543L33.1874 56.2773V84.6249C33.1874 89.1606 35.9531 92.9218 39.2386 95.5215C42.5242 98.1046 46.6062 99.9299 51.5069 101.567C61.3194 104.831 74.2514 106.75 88.4999 106.75C102.748 106.75 115.681 104.836 125.493 101.562C130.394 99.9299 134.476 98.1046 137.761 95.516C141.047 92.9218 143.812 89.1606 143.812 84.6249V56.2773L159.372 51.089L175.092 45.9062L159.366 40.7179L90.2257 17.5585L88.4999 17.0331ZM88.4999 28.621L140.355 45.9062L88.4999 63.1913L36.6445 45.9062L88.4999 28.621ZM44.2499 60.0828L86.7742 74.2538L88.4999 74.7738L90.2312 74.2483L132.75 60.0773V84.6249C132.75 84.6803 132.772 85.3219 131.019 86.6992C129.271 88.082 126.135 89.8243 122.03 91.1961C113.833 93.923 101.747 95.6874 88.4999 95.6874C75.2526 95.6874 63.1668 93.9285 54.964 91.1905C50.8708 89.8243 47.7291 88.0764 45.9812 86.6992C44.2223 85.3163 44.2499 84.6803 44.2499 84.6249V60.0773V60.0828Z" fill="#34B3F1" fill-opacity="0.15"/>
</svg>
