<svg width="75" height="75" viewBox="0 0 75 75" fill="none" xmlns="http://www.w3.org/2000/svg">
<g clip-path="url(#clip0_6_10267)">
<path d="M37.5001 4.1665C30.9074 4.1665 24.4627 6.12147 18.9811 9.78418C13.4994 13.4469 9.22703 18.6529 6.70411 24.7437C4.18119 30.8346 3.52108 37.5368 4.80725 44.0028C6.09343 50.4689 9.26812 56.4083 13.9299 61.0701C18.5916 65.7318 24.5311 68.9065 30.9971 70.1927C37.4631 71.4789 44.1653 70.8187 50.2562 68.2958C56.3471 65.7729 61.553 61.5005 65.2158 56.0188C68.8785 50.5372 70.8334 44.0925 70.8334 37.4998C70.8334 28.6593 67.3215 20.1808 61.0703 13.9296C54.8191 7.6784 46.3406 4.1665 37.5001 4.1665ZM37.5001 66.6665C31.7315 66.6665 26.0924 64.9559 21.296 61.751C16.4995 58.5462 12.7612 53.9909 10.5536 48.6614C8.34605 43.3319 7.76846 37.4675 8.89386 31.8097C10.0193 26.1519 12.7971 20.9549 16.8761 16.8759C20.9552 12.7969 26.1522 10.019 31.81 8.8936C37.4677 7.7682 43.3322 8.3458 48.6617 10.5534C53.9912 12.7609 58.5464 16.4993 61.7513 21.2957C64.9562 26.0921 66.6668 31.7312 66.6668 37.4998C66.6668 45.2353 63.5939 52.654 58.124 58.1238C52.6542 63.5936 45.2356 66.6665 37.5001 66.6665Z" fill="#7CCC89"/>
<path d="M58.3334 25.2084C57.943 24.8203 57.415 24.6025 56.8646 24.6025C56.3142 24.6025 55.7862 24.8203 55.3959 25.2084L32.2709 48.2292L19.7709 35.7292C19.3896 35.3176 18.8605 35.0742 18.2998 35.0527C17.7391 35.0312 17.1929 35.2334 16.7813 35.6146C16.3696 35.9959 16.1263 36.525 16.1048 37.0857C16.0833 37.6463 16.2854 38.1926 16.6667 38.6042L32.2709 54.1667L58.3334 28.1667C58.5286 27.973 58.6836 27.7426 58.7894 27.4887C58.8952 27.2349 58.9496 26.9626 58.9496 26.6875C58.9496 26.4125 58.8952 26.1402 58.7894 25.8863C58.6836 25.6325 58.5286 25.402 58.3334 25.2084Z" fill="#7CCC89"/>
</g>
<defs>
<clipPath id="clip0_6_10267">
<rect width="75" height="75" fill="white"/>
</clipPath>
</defs>
</svg>
