<svg width="29" height="30" viewBox="0 0 29 30" fill="none" xmlns="http://www.w3.org/2000/svg">
<g clip-path="url(#clip0_2_3290)">
<path d="M27.7917 2.91663H1.20833C0.887863 2.91663 0.580519 3.04393 0.353913 3.27054C0.127306 3.49715 0 3.80449 0 4.12496L0 25.875C0 26.1954 0.127306 26.5028 0.353913 26.7294C0.580519 26.956 0.887863 27.0833 1.20833 27.0833H27.7917C28.1121 27.0833 28.4195 26.956 28.6461 26.7294C28.8727 26.5028 29 26.1954 29 25.875V4.12496C29 3.80449 28.8727 3.49715 28.6461 3.27054C28.4195 3.04393 28.1121 2.91663 27.7917 2.91663ZM26.5833 24.6666H24.1667V23.4583H18.125V24.6666H2.41667V5.33329H26.5833V24.6666ZM12.4338 12.2329C12.4338 11.6849 12.6514 11.1593 13.0389 10.7718C13.4264 10.3843 13.952 10.1666 14.5 10.1666C15.6479 10.1666 16.5662 11.097 16.5662 12.2329C16.5662 13.3808 15.6479 14.3112 14.5 14.3112C13.3521 14.3112 12.4338 13.3808 12.4338 12.2329ZM6.89958 14.142C6.89958 13.2841 7.60042 12.5833 8.45833 12.5833C8.87174 12.5833 9.26821 12.7475 9.56054 13.0398C9.85286 13.3322 10.0171 13.7286 10.0171 14.142C10.0171 15 9.31625 15.6887 8.45833 15.6887C7.60042 15.6887 6.89958 15 6.89958 14.142ZM18.9829 14.142C18.9829 13.7286 19.1471 13.3322 19.4395 13.0398C19.7318 12.7475 20.1283 12.5833 20.5417 12.5833C20.9551 12.5833 21.3515 12.7475 21.6439 13.0398C21.9362 13.3322 22.1004 13.7286 22.1004 14.142C22.1004 15 21.3996 15.6887 20.5417 15.6887C19.6838 15.6887 18.9829 15 18.9829 14.142ZM24.1667 18.7941V19.8333H4.83333V18.7941C4.83333 17.6583 6.70625 16.7279 8.45833 16.7279C9.12292 16.7279 9.79958 16.8608 10.3917 17.0904C11.2979 16.2566 12.9292 15.6887 14.5 15.6887C16.0708 15.6887 17.7021 16.2566 18.6083 17.0904C19.2004 16.8608 19.8771 16.7279 20.5417 16.7279C22.2938 16.7279 24.1667 17.6583 24.1667 18.7941Z" fill="#979797"/>
</g>
<defs>
<clipPath id="clip0_2_3290">
<rect width="29" height="29" fill="white" transform="translate(0 0.5)"/>
</clipPath>
</defs>
</svg>
