<svg width="25" height="26" viewBox="0 0 25 26" fill="none" xmlns="http://www.w3.org/2000/svg">
<path d="M1 13.4944C0.972385 13.4944 0.95 13.4721 0.95 13.4444V1C0.95 0.972385 0.972386 0.95 1 0.95H10.1111C10.1387 0.95 10.1611 0.972386 10.1611 0.999999V13.4444C10.1611 13.4721 10.1387 13.4944 10.1111 13.4944H1ZM1 25.05C0.972386 25.05 0.95 25.0276 0.95 25V18.3333C0.95 18.3057 0.972387 18.2833 1 18.2833H10.1111C10.1387 18.2833 10.1611 18.3057 10.1611 18.3333V25C10.1611 25.0276 10.1387 25.05 10.1111 25.05H1ZM14.8889 25.05C14.8613 25.05 14.8389 25.0276 14.8389 25V12.5556C14.8389 12.5279 14.8613 12.5056 14.8889 12.5056H24C24.0276 12.5056 24.05 12.5279 24.05 12.5556V25C24.05 25.0276 24.0276 25.05 24 25.05H14.8889ZM14.8389 1C14.8389 0.972386 14.8613 0.95 14.8889 0.95H24C24.0276 0.95 24.05 0.972387 24.05 1V7.66667C24.05 7.69428 24.0276 7.71667 24 7.71667H14.8889C14.8613 7.71667 14.8389 7.69428 14.8389 7.66667V1Z" stroke="#999999" stroke-width="1.9"/>
</svg>
