<svg width="29" height="30" viewBox="0 0 29 30" fill="none" xmlns="http://www.w3.org/2000/svg">
<path d="M10.6334 14.0334C9.35149 14.0334 8.12211 13.5241 7.21568 12.6177C6.30926 11.7113 5.80003 10.4819 5.80003 9.20002V5.33335C5.80003 5.07697 5.90188 4.8311 6.08316 4.64981C6.26445 4.46853 6.51032 4.36668 6.7667 4.36668H7.73337C7.98974 4.36668 8.23562 4.26484 8.4169 4.08355C8.59819 3.90227 8.70003 3.65639 8.70003 3.40002C8.70003 3.14364 8.59819 2.89776 8.4169 2.71648C8.23562 2.53519 7.98974 2.43335 7.73337 2.43335H6.7667C5.99757 2.43335 5.25994 2.73888 4.71609 3.28274C4.17223 3.8266 3.8667 4.56422 3.8667 5.33335V9.20002C3.86794 10.2921 4.13425 11.3676 4.64274 12.334C5.15123 13.3005 5.88672 14.1291 6.78603 14.7487C7.65007 15.5104 8.35078 16.4394 8.84589 17.4794C9.34099 18.5195 9.62021 19.6491 9.6667 20.8C9.6667 22.5947 10.3796 24.3158 11.6486 25.5848C12.9176 26.8538 14.6387 27.5667 16.4334 27.5667C18.228 27.5667 19.9491 26.8538 21.2181 25.5848C22.4871 24.3158 23.2 22.5947 23.2 20.8V19.698C24.1113 19.4627 24.9054 18.9032 25.4336 18.1243C25.9618 17.3454 26.1878 16.4005 26.0692 15.4669C25.9506 14.5333 25.4956 13.675 24.7895 13.0528C24.0833 12.4307 23.1745 12.0875 22.2334 12.0875C21.2922 12.0875 20.3834 12.4307 19.6773 13.0528C18.9711 13.675 18.5161 14.5333 18.3975 15.4669C18.2789 16.4005 18.5049 17.3454 19.0331 18.1243C19.5613 18.9032 20.3555 19.4627 21.2667 19.698V20.8C21.2667 22.0819 20.7575 23.3113 19.851 24.2177C18.9446 25.1241 17.7152 25.6334 16.4334 25.6334C15.1515 25.6334 13.9221 25.1241 13.0157 24.2177C12.1093 23.3113 11.6 22.0819 11.6 20.8C11.649 19.6476 11.9312 18.5172 12.4297 17.4771C12.9281 16.4369 13.6325 15.5087 14.5 14.7487C15.3958 14.127 16.1275 13.2974 16.6326 12.3311C17.1376 11.3647 17.401 10.2904 17.4 9.20002V5.33335C17.4 4.56422 17.0945 3.8266 16.5506 3.28274C16.0068 2.73888 15.2692 2.43335 14.5 2.43335H13.5334C13.277 2.43335 13.0311 2.53519 12.8498 2.71648C12.6685 2.89776 12.5667 3.14364 12.5667 3.40002C12.5667 3.65639 12.6685 3.90227 12.8498 4.08355C13.0311 4.26484 13.277 4.36668 13.5334 4.36668H14.5C14.7564 4.36668 15.0023 4.46853 15.1836 4.64981C15.3649 4.8311 15.4667 5.07697 15.4667 5.33335V9.20002C15.4667 9.83474 15.3417 10.4632 15.0988 11.0497C14.8559 11.6361 14.4999 12.1689 14.051 12.6177C13.6022 13.0665 13.0694 13.4225 12.483 13.6654C11.8966 13.9083 11.2681 14.0334 10.6334 14.0334ZM22.2334 17.9C21.7206 17.9 21.2289 17.6963 20.8663 17.3338C20.5037 16.9712 20.3 16.4794 20.3 15.9667C20.3 15.4539 20.5037 14.9622 20.8663 14.5996C21.2289 14.237 21.7206 14.0334 22.2334 14.0334C22.7461 14.0334 23.2379 14.237 23.6004 14.5996C23.963 14.9622 24.1667 15.4539 24.1667 15.9667C24.1667 16.4794 23.963 16.9712 23.6004 17.3338C23.2379 17.6963 22.7461 17.9 22.2334 17.9Z" fill="#979797"/>
</svg>
