<svg width="91" height="154" viewBox="0 0 91 154" fill="none" xmlns="http://www.w3.org/2000/svg">
<path d="M49.3044 71.0769C57.2032 71.0769 64.7785 67.9567 70.3638 62.4028C75.9492 56.8488 79.087 49.316 79.087 41.4615V17.7692C79.087 16.1983 78.4594 14.6918 77.3423 13.581C76.2253 12.4702 74.7102 11.8462 73.1304 11.8462H67.1739C65.5942 11.8462 64.0791 11.2221 62.962 10.1113C61.845 9.00053 61.2174 7.49397 61.2174 5.92308C61.2174 4.35218 61.845 2.84562 62.962 1.73483C64.0791 0.624036 65.5942 0 67.1739 0H73.1304C77.8697 0 82.4149 1.87211 85.7661 5.20449C89.1173 8.53687 91 13.0565 91 17.7692V41.4615C90.9923 48.1531 89.3514 54.7427 86.2181 60.6646C83.0848 66.5865 78.5528 71.6637 73.0113 75.46C67.6872 80.1275 63.3694 85.8195 60.3186 92.1922C57.2679 98.5649 55.5473 105.486 55.2609 112.538C55.2609 123.535 50.868 134.081 43.0485 141.856C35.2291 149.632 24.6236 154 13.5653 154C2.50688 154 -8.09856 149.632 -15.918 141.856C-23.7375 134.081 -28.1304 123.535 -28.1304 112.538V105.786C-33.7454 104.345 -38.6388 100.916 -41.8935 96.1433C-45.1483 91.3707 -46.5408 85.5814 -45.81 79.8608C-45.0793 74.1403 -42.2756 68.881 -37.9243 65.069C-33.573 61.257 -27.973 59.1539 -22.1739 59.1539C-16.3748 59.1539 -10.7747 61.257 -6.42345 65.069C-2.07217 68.881 0.73159 74.1403 1.4623 79.8608C2.19302 85.5814 0.800514 91.3707 -2.4542 96.1433C-5.70892 100.916 -10.6024 104.345 -16.2173 105.786V112.538C-16.2173 120.393 -13.0795 127.926 -7.49422 133.48C-1.90891 139.034 5.66642 142.154 13.5653 142.154C21.4641 142.154 29.0394 139.034 34.6247 133.48C40.21 127.926 43.3478 120.393 43.3478 112.538C43.0463 105.478 41.3072 98.5508 38.2357 92.1776C35.1642 85.8044 30.8241 80.1171 25.4783 75.46C19.9588 71.6505 15.45 66.5676 12.3379 60.6465C9.22575 54.7254 7.60307 48.1426 7.60873 41.4615V17.7692C7.60873 13.0565 9.49141 8.53687 12.8426 5.20449C16.1938 1.87211 20.739 0 25.4783 0H31.4348C33.0146 0 34.5296 0.624036 35.6467 1.73483C36.7638 2.84562 37.3913 4.35218 37.3913 5.92308C37.3913 7.49397 36.7638 9.00053 35.6467 10.1113C34.5296 11.2221 33.0146 11.8462 31.4348 11.8462H25.4783C23.8985 11.8462 22.3835 12.4702 21.2664 13.581C20.1493 14.6918 19.5218 16.1983 19.5218 17.7692V41.4615C19.5218 45.3507 20.2921 49.2018 21.7888 52.7949C23.2855 56.388 25.4793 59.6527 28.2449 62.4028C31.0105 65.1528 34.2937 67.3343 37.9071 68.8226C41.5205 70.3109 45.3933 71.0769 49.3044 71.0769ZM-22.1739 94.7692C-19.0143 94.7692 -15.9842 93.5212 -13.7501 91.2996C-11.5159 89.078 -10.2608 86.0649 -10.2608 82.9231C-10.2608 79.7813 -11.5159 76.7682 -13.7501 74.5466C-15.9842 72.325 -19.0143 71.0769 -22.1739 71.0769C-25.3334 71.0769 -28.3635 72.325 -30.5977 74.5466C-32.8318 76.7682 -34.0869 79.7813 -34.0869 82.9231C-34.0869 86.0649 -32.8318 89.078 -30.5977 91.2996C-28.3635 93.5212 -25.3334 94.7692 -22.1739 94.7692Z" fill="#E0A763" fill-opacity="0.15"/>
</svg>
