<svg width="35" height="36" viewBox="0 0 35 36" fill="none" xmlns="http://www.w3.org/2000/svg">
<path d="M17.5001 9.0094L17.1578 9.11331L3.48588 13.6939L0.377441 14.7188L2.1876 15.2985V24.8688C1.53463 25.2483 1.09385 25.9406 1.09385 26.75C1.09385 27.3302 1.32432 27.8866 1.73455 28.2968C2.14479 28.7071 2.70119 28.9375 3.28135 28.9375C3.86151 28.9375 4.41791 28.7071 4.82815 28.2968C5.23838 27.8866 5.46885 27.3302 5.46885 26.75C5.46885 25.9406 5.02807 25.2483 4.3751 24.8688V16.0531L6.5626 16.7696V22.375C6.5626 23.2719 7.10947 24.0156 7.75916 24.5297C8.40885 25.0405 9.21604 25.4014 10.1851 25.7252C12.1254 26.3705 14.6826 26.75 17.5001 26.75C20.3176 26.75 22.8748 26.3716 24.8151 25.7241C25.7842 25.4014 26.5914 25.0405 27.241 24.5286C27.8907 24.0156 28.4376 23.2719 28.4376 22.375V16.7696L31.5143 15.7436L34.6228 14.7188L31.5132 13.6928L17.8414 9.11331L17.5001 9.0094ZM17.5001 11.3008L27.754 14.7188L17.5001 18.1367L7.24619 14.7188L17.5001 11.3008ZM8.7501 17.5221L17.1589 20.3242L17.5001 20.4271L17.8424 20.3231L26.2501 17.521V22.375C26.2501 22.386 26.2545 22.5128 25.9078 22.7852C25.5621 23.0586 24.942 23.4031 24.1304 23.6744C22.5095 24.2136 20.1196 24.5625 17.5001 24.5625C14.8806 24.5625 12.4907 24.2147 10.8687 23.6733C10.0593 23.4031 9.43807 23.0575 9.09244 22.7852C8.74463 22.5117 8.7501 22.386 8.7501 22.375V17.521V17.5221Z" fill="#979797"/>
</svg>
