<svg width="31" height="31" viewBox="0 0 31 31" fill="none" xmlns="http://www.w3.org/2000/svg">
<path d="M25.1429 17.4286V15.5C25.1429 14.9885 24.9397 14.498 24.578 14.1363C24.2163 13.7746 23.7258 13.5714 23.2143 13.5714H3.92857C3.41708 13.5714 2.92654 13.7746 2.56487 14.1363C2.20319 14.498 2 14.9885 2 15.5V27.0714C2 27.5829 2.20319 28.0735 2.56487 28.4351C2.92654 28.7968 3.41708 29 3.92857 29H23.2143C23.7258 29 24.2163 28.7968 24.578 28.4351C24.9397 28.0735 25.1429 27.5829 25.1429 27.0714V25.1429M25.1429 17.4286H17.4286C16.4056 17.4286 15.4245 17.8349 14.7012 18.5583C13.9778 19.2817 13.5714 20.2627 13.5714 21.2857C13.5714 22.3087 13.9778 23.2898 14.7012 24.0131C15.4245 24.7365 16.4056 25.1429 17.4286 25.1429H25.1429M25.1429 17.4286C26.1658 17.4286 27.1469 17.8349 27.8703 18.5583C28.5936 19.2817 29 20.2627 29 21.2857C29 22.3087 28.5936 23.2898 27.8703 24.0131C27.1469 24.7365 26.1658 25.1429 25.1429 25.1429M7.78571 13.5714V7.78571C7.78571 6.25125 8.39528 4.77963 9.48031 3.6946C10.5653 2.60956 12.037 2 13.5714 2C15.1059 2 16.5775 2.60956 17.6625 3.6946C18.7476 4.77963 19.3571 6.25125 19.3571 7.78571V13.5714M24.1786 21.2857H26.1071M20.3214 21.2857H22.25M16.4643 21.2857H18.3929" stroke="#979797" stroke-width="2.2"/>
</svg>
