<svg width="166" height="180" viewBox="0 0 166 180" fill="none" xmlns="http://www.w3.org/2000/svg">
<path d="M60.6956 60C54.1229 60 47.8193 57.3661 43.1717 52.6777C38.5241 47.9893 35.913 41.6304 35.913 35V15C35.913 13.6739 36.4352 12.4021 37.3648 11.4645C38.2943 10.5268 39.555 10 40.8696 10H45.8261C47.1406 10 48.4013 9.47322 49.3309 8.53553C50.2604 7.59785 50.7826 6.32608 50.7826 5C50.7826 3.67392 50.2604 2.40215 49.3309 1.46447C48.4013 0.526784 47.1406 0 45.8261 0H40.8696C36.9259 0 33.1438 1.58035 30.3552 4.3934C27.5666 7.20644 26 11.0218 26 15V35C26.0064 40.6487 27.3718 46.2114 29.9791 51.2104C32.5864 56.2094 36.3575 60.4953 40.9687 63.7C45.399 67.6401 48.9919 72.445 51.5305 77.8246C54.0691 83.2041 55.5008 89.0469 55.7391 95C55.7391 104.283 59.3945 113.185 65.9012 119.749C72.4079 126.313 81.2329 130 90.4348 130C99.6366 130 108.462 126.313 114.968 119.749C121.475 113.185 125.13 104.283 125.13 95V89.3C129.803 88.083 133.875 85.1889 136.583 81.16C139.291 77.1311 140.45 72.2441 139.842 67.415C139.234 62.5859 136.901 58.1463 133.28 54.9284C129.659 51.7104 124.999 49.9351 120.174 49.9351C115.348 49.9351 110.688 51.7104 107.068 54.9284C103.447 58.1463 101.114 62.5859 100.506 67.415C99.8978 72.2441 101.057 77.1311 103.765 81.16C106.473 85.1889 110.545 88.083 115.217 89.3V95C115.217 101.63 112.606 107.989 107.959 112.678C103.311 117.366 97.0075 120 90.4348 120C83.862 120 77.5585 117.366 72.9108 112.678C68.2632 107.989 65.6522 101.63 65.6522 95C65.9031 89.0395 67.3502 83.1923 69.9061 77.8123C72.4619 72.4322 76.0733 67.6313 80.5217 63.7C85.1146 60.4842 88.8664 56.1934 91.4561 51.1951C94.0457 46.1968 95.396 40.6398 95.3913 35V15C95.3913 11.0218 93.8247 7.20644 91.0361 4.3934C88.2475 1.58035 84.4654 0 80.5217 0H75.5652C74.2506 0 72.9899 0.526784 72.0604 1.46447C71.1309 2.40215 70.6087 3.67392 70.6087 5C70.6087 6.32608 71.1309 7.59785 72.0604 8.53553C72.9899 9.47322 74.2506 10 75.5652 10H80.5217C81.8363 10 83.097 10.5268 84.0265 11.4645C84.956 12.4021 85.4782 13.6739 85.4782 15V35C85.4782 38.2831 84.8372 41.5339 83.5918 44.5671C82.3463 47.6002 80.5209 50.3562 78.2196 52.6777C75.9183 54.9991 73.1863 56.8406 70.1795 58.097C67.1728 59.3534 63.9501 60 60.6956 60ZM120.174 80C117.545 80 115.023 78.9464 113.164 77.0711C111.305 75.1957 110.261 72.6522 110.261 70C110.261 67.3478 111.305 64.8043 113.164 62.9289C115.023 61.0536 117.545 60 120.174 60C122.803 60 125.324 61.0536 127.183 62.9289C129.043 64.8043 130.087 67.3478 130.087 70C130.087 72.6522 129.043 75.1957 127.183 77.0711C125.324 78.9464 122.803 80 120.174 80Z" fill="#FAAA27"/>
<path d="M4.508 174V165.488H14.224V163.416H4.508V157.396H14.42V155.324H2.184V174H4.508ZM28.7499 174V160.476H26.6499V170.416C25.8659 171.508 24.2979 172.46 22.6739 172.46C20.8259 172.46 19.6219 171.76 19.6219 169.38V160.476H17.5219V170.024C17.5219 172.936 19.0059 174.336 21.8339 174.336C23.8499 174.336 25.6139 173.272 26.6499 172.096V174H28.7499ZM36.3878 174.336C37.5918 174.336 38.3478 173.972 38.8798 173.468L38.2638 171.872C37.9838 172.18 37.4518 172.46 36.8358 172.46C35.9398 172.46 35.4918 171.732 35.4918 170.724V162.324H38.2357V160.476H35.4918V156.78H33.3638V160.476H31.1238V162.324H33.3638V171.172C33.3638 173.188 34.3718 174.336 36.3878 174.336ZM52.4022 174V160.476H50.3022V170.416C49.5182 171.508 47.9502 172.46 46.3262 172.46C44.4782 172.46 43.2742 171.76 43.2742 169.38V160.476H41.1742V170.024C41.1742 172.936 42.6582 174.336 45.4862 174.336C47.5022 174.336 49.2662 173.272 50.3022 172.096V174H52.4022ZM58.6961 174V164.424C59.3121 163.332 61.0761 162.268 62.3921 162.268C62.7001 162.268 62.9521 162.296 63.2041 162.324V160.168C61.3561 160.168 59.7881 161.232 58.6961 162.632V160.476H56.5961V174H58.6961ZM71.9703 174.336C74.1543 174.336 75.9743 173.58 77.3463 172.236L76.3383 170.864C75.2463 171.984 73.7063 172.6 72.1383 172.6C69.2263 172.6 67.4623 170.472 67.2943 167.924H78.2143V167.392C78.2143 163.332 75.8063 160.14 71.7183 160.14C67.8543 160.14 65.0543 163.304 65.0543 167.224C65.0543 171.452 67.9383 174.336 71.9703 174.336ZM76.1423 166.356H67.2663C67.3783 164.312 68.8063 161.876 71.6903 161.876C74.7703 161.876 76.1143 164.368 76.1423 166.356ZM88.7556 174C94.5796 174 98.6396 170.304 98.6396 164.648C98.6396 159.048 94.5796 155.324 88.7276 155.324H81.3636V174H88.7556ZM88.7276 170.5H85.3396V158.824H88.7556C92.5636 158.824 94.5796 161.372 94.5796 164.648C94.5796 167.84 92.4236 170.5 88.7276 170.5ZM107.649 174.336C112.129 174.336 114.817 171.06 114.817 167.224C114.817 163.388 112.129 160.14 107.649 160.14C103.197 160.14 100.509 163.388 100.509 167.224C100.509 171.06 103.197 174.336 107.649 174.336ZM107.649 171.172C105.437 171.172 104.205 169.352 104.205 167.224C104.205 165.124 105.437 163.304 107.649 163.304C109.889 163.304 111.121 165.124 111.121 167.224C111.121 169.352 109.889 171.172 107.649 171.172ZM123.783 174.336C126.555 174.336 128.235 173.104 129.131 171.872L126.807 169.688C126.163 170.612 125.183 171.172 123.951 171.172C121.795 171.172 120.283 169.576 120.283 167.224C120.283 164.872 121.795 163.304 123.951 163.304C125.183 163.304 126.163 163.808 126.807 164.76L129.131 162.576C128.235 161.344 126.555 160.14 123.783 160.14C119.639 160.14 116.615 163.08 116.615 167.224C116.615 171.396 119.639 174.336 123.783 174.336ZM135.991 174.336C137.475 174.336 138.427 173.944 138.959 173.468L138.203 170.752C138.007 170.976 137.503 171.172 136.971 171.172C136.187 171.172 135.739 170.528 135.739 169.66V163.584H138.483V160.476H135.739V156.78H132.183V160.476H129.943V163.584H132.183V170.612C132.183 173.048 133.499 174.336 135.991 174.336ZM147.188 174.336C151.668 174.336 154.356 171.06 154.356 167.224C154.356 163.388 151.668 160.14 147.188 160.14C142.736 160.14 140.048 163.388 140.048 167.224C140.048 171.06 142.736 174.336 147.188 174.336ZM147.188 171.172C144.976 171.172 143.744 169.352 143.744 167.224C143.744 165.124 144.976 163.304 147.188 163.304C149.428 163.304 150.66 165.124 150.66 167.224C150.66 169.352 149.428 171.172 147.188 171.172ZM160.578 174V165.068C161.166 164.2 162.734 163.528 163.91 163.528C164.33 163.528 164.638 163.556 164.89 163.612V160.14C163.21 160.14 161.558 161.12 160.578 162.296V160.476H157.022V174H160.578Z" fill="black"/>
</svg>
