<svg width="32" height="9" viewBox="0 0 32 9" fill="none" xmlns="http://www.w3.org/2000/svg">
<path d="M12.0332 3.33333H12.2134L12.2703 3.16239C12.8027 1.5652 14.265 0.5 15.9998 0.5C17.7347 0.5 19.1969 1.5652 19.7293 3.16239L19.7863 3.33333H19.9665H23.3665H23.5467L23.6037 3.16239C24.1361 1.5652 25.5983 0.5 27.3332 0.5C29.6034 0.5 31.3332 2.22974 31.3332 4.5C31.3332 6.77026 29.6034 8.5 27.3332 8.5C25.5983 8.5 24.1361 7.4348 23.6037 5.83761L23.5467 5.66667H23.3665H19.9665H19.7863L19.7293 5.83761C19.1969 7.4348 17.7347 8.5 15.9998 8.5C14.265 8.5 12.8027 7.4348 12.2703 5.83761L12.2134 5.66667H12.0332H8.63317H8.45298L8.396 5.83761C7.8636 7.4348 6.40132 8.5 4.6665 8.5C2.39624 8.5 0.666504 6.77026 0.666504 4.5C0.666504 2.22974 2.39624 0.5 4.6665 0.5C6.40132 0.5 7.8636 1.5652 8.396 3.16239L8.45298 3.33333H8.63317H12.0332ZM4.6665 2.83333C4.18469 2.83333 3.76375 2.99503 3.46264 3.29614C3.16153 3.59725 2.99984 4.01819 2.99984 4.5C2.99984 4.98181 3.16153 5.40275 3.46264 5.70386C3.76375 6.00497 4.18469 6.16667 4.6665 6.16667C5.14831 6.16667 5.56925 6.00497 5.87036 5.70386C6.17147 5.40275 6.33317 4.98181 6.33317 4.5C6.33317 4.01819 6.17147 3.59725 5.87036 3.29614C5.56925 2.99503 5.14831 2.83333 4.6665 2.83333ZM27.3332 6.16667C27.815 6.16667 28.2359 6.00497 28.537 5.70386C28.8381 5.40275 28.9998 4.98181 28.9998 4.5C28.9998 4.01819 28.8381 3.59725 28.537 3.29614C28.2359 2.99503 27.815 2.83333 27.3332 2.83333C26.8514 2.83333 26.4304 2.99503 26.1293 3.29614C25.8282 3.59725 25.6665 4.01819 25.6665 4.5C25.6665 4.98181 25.8282 5.40275 26.1293 5.70386C26.4304 6.00497 26.8514 6.16667 27.3332 6.16667Z" fill="#F3AB21" stroke="#FAFAFA" stroke-width="0.5"/>
</svg>
