<svg width="33" height="9" viewBox="0 0 33 9" fill="none" xmlns="http://www.w3.org/2000/svg">
<path d="M12.5332 3.33333H12.7134L12.7703 3.16239C13.3027 1.5652 14.765 0.5 16.4998 0.5C18.2347 0.5 19.6969 1.5652 20.2293 3.16239L20.2863 3.33333H20.4665H23.8665H24.0467L24.1037 3.16239C24.6361 1.5652 26.0983 0.5 27.8332 0.5C30.1034 0.5 31.8332 2.22974 31.8332 4.5C31.8332 6.77026 30.1034 8.5 27.8332 8.5C26.0983 8.5 24.6361 7.4348 24.1037 5.83761L24.0467 5.66667H23.8665H20.4665H20.2863L20.2293 5.83761C19.6969 7.4348 18.2347 8.5 16.4998 8.5C14.765 8.5 13.3027 7.4348 12.7703 5.83761L12.7134 5.66667H12.5332H9.13317H8.95298L8.896 5.83761C8.3636 7.4348 6.90132 8.5 5.1665 8.5C2.89624 8.5 1.1665 6.77026 1.1665 4.5C1.1665 2.22974 2.89624 0.5 5.1665 0.5C6.90132 0.5 8.3636 1.5652 8.896 3.16239L8.95298 3.33333H9.13317H12.5332ZM5.1665 2.83333C4.68469 2.83333 4.26375 2.99503 3.96264 3.29614C3.66153 3.59725 3.49984 4.01819 3.49984 4.5C3.49984 4.98181 3.66153 5.40275 3.96264 5.70386C4.26375 6.00497 4.68469 6.16667 5.1665 6.16667C5.64831 6.16667 6.06925 6.00497 6.37036 5.70386C6.67147 5.40275 6.83317 4.98181 6.83317 4.5C6.83317 4.01819 6.67147 3.59725 6.37036 3.29614C6.06925 2.99503 5.64831 2.83333 5.1665 2.83333ZM27.8332 6.16667C28.315 6.16667 28.7359 6.00497 29.037 5.70386C29.3381 5.40275 29.4998 4.98181 29.4998 4.5C29.4998 4.01819 29.3381 3.59725 29.037 3.29614C28.7359 2.99503 28.315 2.83333 27.8332 2.83333C27.3514 2.83333 26.9304 2.99503 26.6293 3.29614C26.3282 3.59725 26.1665 4.01819 26.1665 4.5C26.1665 4.98181 26.3282 5.40275 26.6293 5.70386C26.9304 6.00497 27.3514 6.16667 27.8332 6.16667Z" fill="#FF3636" stroke="#FAFAFA" stroke-width="0.5"/>
</svg>
